<?xml version="1.0" encoding="UTF-8"?>
<!-- Generator: visioncortex VTracer 0.6.3 -->
<svg version="1.1" xmlns="http://www.w3.org/2000/svg" width="200" height="200">
<path d="M0 0 C2.5 0.12 2.5 0.12 3.5 1.12 C3.6 3.02 3.63 4.92 3.63 6.82 C3.63 8.04 3.64 9.26 3.64 10.51 C3.64 11.85 3.64 13.19 3.63 14.53 C3.63 15.9 3.63 17.26 3.64 18.62 C3.64 21.48 3.64 24.35 3.63 27.21 C3.62 30.88 3.63 34.56 3.63 38.23 C3.64 41.05 3.64 43.87 3.63 46.69 C3.63 48.04 3.63 49.4 3.64 50.75 C3.64 52.64 3.63 54.54 3.63 56.43 C3.63 57.51 3.63 58.58 3.63 59.7 C3.5 62.12 3.5 62.12 2.5 63.12 C-1.95 63.62 -1.95 63.62 -6.5 64.12 C-0.56 67.75 5.38 71.39 11.5 75.12 C11.42 73.43 11.33 71.74 11.25 70 C11.26 64.84 11.95 62.06 15.5 58.12 C19.42 54.32 23.41 52.85 28.5 51.12 C27.78 50.63 27.06 50.13 26.31 49.62 C21.2 45.08 17.9 39.69 17.3 32.83 C17.15 25.06 18.43 18.43 23.88 12.51 C30.01 7.27 36.52 5.27 44.54 5.64 C50.72 6.65 56.2 9.31 60.44 14 C65.29 21.35 66.69 27.3 65.5 36.12 C63.36 42.74 60.17 47.17 54.5 51.12 C55.16 51.36 55.83 51.59 56.51 51.82 C62.5 54.04 67.45 55.95 70.43 62.01 C72.07 66.11 72.76 69.67 73.5 74.12 C81.42 69.18 81.42 69.18 89.5 64.12 C86.53 63.8 83.56 63.47 80.5 63.12 C78.73 61.36 79.37 58.82 79.37 56.43 C79.37 55.21 79.36 53.99 79.36 52.74 C79.36 51.4 79.36 50.06 79.37 48.72 C79.37 47.35 79.37 45.99 79.36 44.63 C79.36 41.77 79.36 38.9 79.37 36.04 C79.38 32.37 79.37 28.69 79.37 25.02 C79.36 22.2 79.36 19.38 79.37 16.56 C79.37 15.21 79.37 13.85 79.36 12.5 C79.36 10.61 79.37 8.71 79.37 6.82 C79.37 5.74 79.37 4.67 79.37 3.55 C79.5 1.13 79.5 1.13 80.5 0.12 C83 0 83 0 85.5 0.12 C86.5 1.13 86.5 1.13 86.61 3.26 C86.61 4.17 86.6 5.09 86.6 6.04 C86.59 7.02 86.59 8.01 86.59 9.03 C86.58 10.07 86.57 11.12 86.56 12.19 C86.56 13.23 86.55 14.28 86.55 15.35 C86.54 17.94 86.52 20.53 86.5 23.12 C87.13 23.12 87.76 23.11 88.42 23.1 C94.99 23.04 101.55 22.99 108.12 22.96 C110.58 22.95 113.03 22.92 115.48 22.9 C119.01 22.86 122.53 22.85 126.05 22.83 C127.15 22.82 128.25 22.8 129.38 22.79 C130.92 22.78 130.92 22.78 132.48 22.78 C133.38 22.78 134.28 22.77 135.2 22.76 C138.06 23.21 138.76 23.84 140.5 26.12 C140.87 28.53 140.87 28.53 140.87 31.45 C140.88 32.55 140.89 33.65 140.9 34.79 C140.89 36 140.88 37.21 140.87 38.46 C140.88 39.73 140.88 41.01 140.88 42.32 C140.89 45.82 140.88 49.32 140.87 52.82 C140.86 56.47 140.86 60.13 140.86 63.79 C140.87 69.93 140.85 76.07 140.84 82.21 C140.82 89.32 140.81 96.42 140.82 103.53 C140.82 110.36 140.82 117.19 140.81 124.02 C140.8 126.93 140.8 129.84 140.8 132.74 C140.81 136.8 140.79 140.86 140.77 144.92 C140.78 146.13 140.78 147.35 140.78 148.6 C140.78 149.7 140.77 150.8 140.76 151.93 C140.76 153.37 140.76 153.37 140.75 154.84 C140.5 157.12 140.5 157.12 138.5 159.12 C135.94 159.31 133.49 159.38 130.93 159.35 C130.15 159.35 129.37 159.35 128.56 159.35 C125.98 159.35 123.39 159.34 120.8 159.32 C119.01 159.32 117.22 159.31 115.43 159.31 C110.71 159.3 106 159.28 101.28 159.26 C96.47 159.24 91.65 159.23 86.84 159.22 C77.39 159.2 67.95 159.17 58.5 159.12 C58.78 160.02 59.05 160.91 59.34 161.83 C59.88 163.58 59.88 163.58 60.44 165.38 C60.98 167.12 60.98 167.12 61.53 168.89 C62.25 171.3 62.93 173.68 63.5 176.12 C65.07 176.11 65.07 176.11 66.68 176.09 C70.57 176.06 74.46 176.03 78.34 176.02 C80.03 176.01 81.71 175.99 83.4 175.97 C85.81 175.95 88.23 175.94 90.65 175.93 C91.4 175.92 92.16 175.91 92.94 175.9 C94.79 175.9 96.65 176 98.5 176.12 C101.13 178.75 100.76 180.67 100.77 184.25 C100.77 185.03 100.76 185.82 100.75 186.62 C100.76 187.41 100.77 188.2 100.77 189 C100.75 194.87 100.75 194.87 98.5 197.12 C96.48 197.38 96.48 197.38 93.95 197.38 C92.51 197.39 92.51 197.39 91.04 197.4 C89.46 197.39 89.46 197.39 87.84 197.38 C86.73 197.39 85.62 197.39 84.48 197.39 C80.8 197.4 77.12 197.4 73.44 197.39 C70.89 197.39 68.34 197.39 65.79 197.4 C60.45 197.4 55.1 197.4 49.75 197.39 C43.57 197.37 37.38 197.38 31.2 197.39 C25.25 197.4 19.31 197.4 13.36 197.39 C10.83 197.39 8.3 197.39 5.76 197.4 C2.23 197.4 -1.31 197.39 -4.84 197.38 C-5.9 197.39 -6.95 197.39 -8.04 197.4 C-9 197.39 -9.96 197.38 -10.95 197.38 C-11.78 197.38 -12.62 197.38 -13.48 197.38 C-15.5 197.12 -15.5 197.12 -17.5 195.12 C-17.7 192.25 -17.78 189.5 -17.75 186.62 C-17.76 185.45 -17.76 185.45 -17.77 184.25 C-17.75 178.38 -17.75 178.38 -15.5 176.12 C-12.85 175.95 -10.3 175.89 -7.65 175.93 C-6.49 175.93 -6.49 175.93 -5.3 175.94 C-2.83 175.95 -0.35 175.97 2.12 176 C3.8 176.01 5.48 176.02 7.16 176.03 C11.27 176.05 15.39 176.08 19.5 176.12 C19.96 174.79 20.42 173.46 20.88 172.12 C21.13 171.38 21.39 170.64 21.65 169.88 C22.36 167.57 22.98 165.29 23.55 162.95 C23.87 161.69 24.18 160.43 24.5 159.12 C23.5 159.13 22.5 159.13 21.48 159.14 C12.09 159.18 2.7 159.21 -6.69 159.23 C-11.52 159.24 -16.34 159.25 -21.17 159.28 C-25.82 159.3 -30.48 159.31 -35.14 159.31 C-36.91 159.32 -38.69 159.33 -40.47 159.34 C-42.96 159.35 -45.44 159.35 -47.93 159.35 C-48.67 159.36 -49.41 159.37 -50.17 159.37 C-55.27 159.35 -55.27 159.35 -57.5 157.12 C-57.75 154.84 -57.75 154.84 -57.76 151.93 C-57.77 150.83 -57.77 149.73 -57.78 148.6 C-57.78 147.38 -57.78 146.17 -57.77 144.92 C-57.78 143.65 -57.78 142.37 -57.79 141.06 C-57.8 137.56 -57.8 134.07 -57.8 130.57 C-57.8 127.65 -57.81 124.73 -57.81 121.82 C-57.82 114.93 -57.82 108.05 -57.82 101.17 C-57.81 94.06 -57.82 86.96 -57.84 79.85 C-57.86 73.76 -57.87 67.66 -57.86 61.57 C-57.86 57.93 -57.86 54.28 -57.88 50.64 C-57.89 46.58 -57.88 42.52 -57.87 38.46 C-57.88 37.25 -57.89 36.04 -57.9 34.79 C-57.89 33.69 -57.88 32.58 -57.87 31.45 C-57.87 30.48 -57.87 29.52 -57.87 28.53 C-57.43 25.7 -56.79 24.81 -54.5 23.12 C-52.2 22.76 -52.2 22.76 -49.48 22.78 C-48.46 22.78 -47.44 22.78 -46.38 22.79 C-44.73 22.81 -44.73 22.81 -43.05 22.83 C-41.36 22.84 -41.36 22.84 -39.63 22.84 C-36.03 22.86 -32.42 22.9 -28.81 22.94 C-26.37 22.95 -23.93 22.97 -21.48 22.98 C-15.49 23.01 -9.49 23.06 -3.5 23.12 C-3.51 22.46 -3.51 21.8 -3.52 21.12 C-3.54 18.14 -3.55 15.17 -3.56 12.19 C-3.57 11.15 -3.58 10.11 -3.59 9.03 C-3.59 8.04 -3.59 7.05 -3.6 6.04 C-3.6 5.12 -3.61 4.2 -3.61 3.26 C-3.45 0.15 -3.13 0.16 0 0 Z M28.12 19.5 C25.11 24.37 23.95 28.33 24.89 34.1 C26.28 38.72 29.12 42.01 32.81 45 C37.96 47.16 42.39 47.75 47.69 46.06 C52.72 43.9 55.05 40.5 57.88 35.88 C59.03 30.79 58.9 25.66 56.34 21.03 C52.3 15.95 48.01 13.65 41.56 12.69 C36.15 13.46 31.98 15.64 28.12 19.5 Z M-49.5 31.12 C-49.5 64.45 -49.5 97.78 -49.5 132.12 C10.56 132.12 70.62 132.12 132.5 132.12 C132.5 98.8 132.5 65.47 132.5 31.12 C117.32 31.12 102.14 31.12 86.5 31.12 C86.5 39.38 86.5 47.62 86.5 56.12 C93.1 56.45 99.7 56.78 106.5 57.12 C107.5 61.12 107.5 61.12 107.5 63.12 C106.43 63.52 106.43 63.52 105.34 63.92 C102.38 65.18 99.8 66.67 97.06 68.36 C96.01 69.01 94.96 69.66 93.88 70.33 C92.77 71.03 91.65 71.72 90.5 72.44 C89.34 73.16 88.17 73.88 87.01 74.6 C84.64 76.07 82.28 77.53 79.92 79 C76.78 80.95 73.64 82.89 70.5 84.83 C69.59 85.39 68.67 85.96 67.73 86.54 C65.97 87.63 64.21 88.71 62.45 89.79 C58.92 91.97 55.41 94.16 51.97 96.48 C50.53 97.45 50.53 97.45 49.06 98.44 C48.3 98.97 47.54 99.5 46.75 100.05 C43.79 101.46 41.76 101.37 38.5 101.12 C36.03 100 36.03 100 33.58 98.41 C32.65 97.81 31.72 97.22 30.76 96.6 C29.77 95.95 28.77 95.3 27.75 94.62 C25.61 93.25 23.46 91.87 21.32 90.5 C20.76 90.14 20.21 89.79 19.64 89.42 C13.38 85.39 7.04 81.51 0.69 77.62 C-1.4 76.34 -3.49 75.06 -5.58 73.78 C-6.56 73.18 -7.54 72.58 -8.55 71.96 C-12.51 69.5 -16.42 66.95 -20.33 64.39 C-22.37 62.96 -22.37 62.96 -24.5 63.12 C-24.54 61.46 -24.54 59.79 -24.5 58.12 C-22.92 56.54 -21.22 56.91 -19.03 56.81 C-17.81 56.75 -17.81 56.75 -16.57 56.69 C-15.54 56.65 -14.5 56.61 -13.44 56.56 C-8.52 56.35 -8.52 56.35 -3.5 56.12 C-3.5 47.88 -3.5 39.62 -3.5 31.12 C-18.68 31.12 -33.86 31.12 -49.5 31.12 Z M20.5 63.12 C17.6 67.24 17.73 72.06 17.81 76.93 C18.64 80.79 19.56 81.76 22.75 84 C24.65 85.07 26.57 86.11 28.5 87.12 C30.06 88.14 30.06 88.14 31.66 89.17 C35.93 91.95 35.93 91.95 40.5 94.12 C43.91 93.03 46.85 91.43 49.89 89.56 C50.68 89.07 51.47 88.59 52.29 88.09 C53.1 87.58 53.91 87.08 54.75 86.56 C55.58 86.06 56.41 85.55 57.26 85.03 C61.08 82.84 61.08 82.84 64.5 80.12 C64.68 77.88 64.77 75.63 64.81 73.38 C64.85 72.14 64.89 70.91 64.93 69.64 C64.43 65.56 63.37 64 60.5 61.12 C57.54 59.64 54.51 59.94 51.26 59.92 C50.54 59.92 49.83 59.91 49.09 59.9 C47.57 59.9 46.05 59.89 44.52 59.88 C42.21 59.88 39.89 59.84 37.57 59.81 C36.09 59.81 34.62 59.8 33.14 59.8 C32.45 59.78 31.76 59.77 31.05 59.76 C26.68 59.78 23.99 60.49 20.5 63.12 Z M-49.5 139.12 C-49.5 143.41 -49.5 147.71 -49.5 152.12 C10.56 152.12 70.62 152.12 132.5 152.12 C132.5 147.84 132.5 143.54 132.5 139.12 C72.44 139.12 12.38 139.12 -49.5 139.12 Z M32.5 159.12 C30.85 164.74 29.2 170.34 27.5 176.12 C36.74 176.12 45.98 176.12 55.5 176.12 C53.85 170.51 52.2 164.91 50.5 159.12 C44.56 159.12 38.62 159.12 32.5 159.12 Z M-10.5 184.12 C-10.5 186.1 -10.5 188.09 -10.5 190.12 C23.82 190.12 58.14 190.12 93.5 190.12 C93.5 188.15 93.5 186.16 93.5 184.12 C59.18 184.12 24.86 184.12 -10.5 184.12 Z " fill="#FFFFFF" transform="translate(58.5,1.875)"/>
<path d="M0 0 C0.79 0.01 1.57 0.02 2.38 0.02 C3.16 0.02 3.95 0.01 4.76 0 C10.63 0.02 10.63 0.02 12.88 2.27 C13.07 5.53 13.07 5.53 13 9.4 C12.99 10.68 12.97 11.96 12.95 13.28 C12.93 14.27 12.9 15.26 12.88 16.27 C13.88 16.26 14.88 16.25 15.91 16.24 C17.2 16.23 18.49 16.22 19.82 16.21 C21.1 16.2 22.39 16.19 23.72 16.18 C26.88 16.27 26.88 16.27 27.88 17.27 C27.97 18.69 27.99 20.11 27.98 21.53 C27.97 22.38 27.97 23.24 27.97 24.12 C27.95 25.46 27.95 25.46 27.94 26.84 C27.94 27.74 27.93 28.64 27.93 29.57 C27.92 31.8 27.9 34.04 27.88 36.27 C24.59 37.37 22.14 37.37 18.69 37.34 C17.06 37.32 17.06 37.32 15.4 37.31 C14.57 37.3 13.74 37.29 12.88 37.27 C12.9 38.19 12.93 39.1 12.95 40.05 C12.97 41.24 12.99 42.42 13 43.65 C13.03 44.83 13.05 46.02 13.07 47.23 C12.88 50.27 12.88 50.27 10.88 52.27 C8.01 52.47 5.25 52.55 2.38 52.52 C1.2 52.54 1.2 52.54 0 52.55 C-5.87 52.53 -5.87 52.53 -8.12 50.27 C-8.32 47.23 -8.32 47.23 -8.25 43.65 C-8.23 42.46 -8.21 41.27 -8.19 40.05 C-8.17 39.13 -8.15 38.22 -8.12 37.27 C-8.95 37.3 -9.78 37.32 -10.64 37.34 C-12.27 37.37 -12.27 37.37 -13.93 37.4 C-15.01 37.42 -16.09 37.44 -17.2 37.47 C-20.12 37.27 -20.12 37.27 -23.12 35.27 C-23.48 33.41 -23.48 33.41 -23.45 31.18 C-23.44 30.37 -23.44 29.57 -23.43 28.75 C-23.41 27.91 -23.39 27.07 -23.37 26.21 C-23.37 25.37 -23.36 24.53 -23.36 23.66 C-23.28 17.43 -23.28 17.43 -22.12 16.27 C-19.77 16.2 -17.41 16.19 -15.06 16.21 C-13.77 16.22 -12.48 16.23 -11.15 16.24 C-10.15 16.25 -9.15 16.26 -8.12 16.27 C-8.14 15.29 -8.17 14.3 -8.19 13.28 C-8.21 12 -8.23 10.72 -8.25 9.4 C-8.27 8.12 -8.29 6.85 -8.32 5.53 C-7.97 -0.33 -5.21 0.02 0 0 Z M-0.12 8.27 C-0.18 9.12 -0.24 9.96 -0.3 10.83 C-0.39 11.92 -0.47 13.02 -0.56 14.15 C-0.64 15.24 -0.72 16.33 -0.8 17.45 C-1.12 20.27 -1.12 20.27 -2.12 22.27 C-5.28 22.69 -5.28 22.69 -9.18 22.9 C-10.47 22.97 -11.76 23.05 -13.09 23.12 C-14.09 23.17 -15.09 23.22 -16.12 23.27 C-16.12 25.25 -16.12 27.23 -16.12 29.27 C-14.62 29.35 -14.62 29.35 -13.09 29.42 C-11.8 29.5 -10.51 29.57 -9.18 29.65 C-7.25 29.75 -7.25 29.75 -5.28 29.86 C-4.24 30 -3.2 30.13 -2.12 30.27 C-0.7 33.11 -0.77 35.75 -0.56 38.9 C-0.47 40.09 -0.39 41.28 -0.3 42.5 C-0.24 43.42 -0.18 44.33 -0.12 45.27 C1.86 45.27 3.84 45.27 5.88 45.27 C6.21 40.32 6.54 35.37 6.88 30.27 C11.5 29.94 16.12 29.61 20.88 29.27 C20.88 27.29 20.88 25.31 20.88 23.27 C13.95 22.78 13.95 22.78 6.88 22.27 C6.55 17.65 6.22 13.03 5.88 8.27 C3.9 8.27 1.92 8.27 -0.12 8.27 Z " fill="#FFFFFF" transform="translate(160.12109375,80.7265625)"/>
</svg>
