<?xml version="1.0" encoding="UTF-8"?>
<!-- Generator: visioncortex VTracer 0.6.3 -->
<svg version="1.1" xmlns="http://www.w3.org/2000/svg" width="200" height="200">
<path d="M0 0 C1.13 -0 2.25 -0.01 3.42 -0.01 C5.28 -0.01 5.28 -0.01 7.18 -0.01 C8.49 -0.01 9.79 -0.02 11.13 -0.02 C14.72 -0.03 18.3 -0.03 21.88 -0.03 C24.87 -0.03 27.86 -0.04 30.84 -0.04 C37.89 -0.05 44.93 -0.05 51.98 -0.05 C59.25 -0.05 66.53 -0.06 73.81 -0.08 C80.05 -0.09 86.29 -0.1 92.53 -0.1 C96.26 -0.09 99.99 -0.1 103.72 -0.11 C107.88 -0.12 112.03 -0.12 116.19 -0.11 C117.43 -0.11 118.68 -0.12 119.96 -0.13 C121.08 -0.12 122.21 -0.12 123.37 -0.11 C124.36 -0.11 125.34 -0.11 126.35 -0.12 C128.69 0.13 128.69 0.13 130.69 2.13 C130.86 5 130.92 7.77 130.88 10.64 C130.88 11.48 130.88 12.32 130.87 13.19 C130.86 15.88 130.84 18.57 130.81 21.26 C130.8 23.08 130.79 24.9 130.78 26.72 C130.76 31.19 130.73 35.66 130.69 40.13 C124.25 40.63 124.25 40.63 117.69 41.13 C117.66 47.24 117.64 53.34 117.63 59.45 C117.63 61.53 117.62 63.61 117.61 65.69 C117.6 68.67 117.59 71.65 117.59 74.63 C117.58 75.57 117.58 76.5 117.57 77.46 C117.57 78.76 117.57 78.76 117.57 80.07 C117.57 80.83 117.57 81.6 117.57 82.38 C117.49 84.16 117.49 84.16 118.69 85.13 C120.7 85.37 122.72 85.55 124.75 85.7 C126.41 85.82 126.41 85.82 128.1 85.95 C128.95 86.01 129.81 86.07 130.69 86.13 C130.69 88.44 130.69 90.75 130.69 93.13 C129.83 93.19 128.98 93.25 128.1 93.32 C126.99 93.4 125.89 93.48 124.75 93.57 C123.65 93.65 122.54 93.73 121.41 93.82 C118.77 93.84 118.77 93.84 117.69 95.13 C117.59 96.48 117.57 97.84 117.57 99.19 C117.57 100.06 117.57 100.92 117.57 101.8 C117.58 102.74 117.58 103.67 117.59 104.64 C117.59 105.59 117.59 106.54 117.59 107.53 C117.6 110.58 117.61 113.64 117.62 116.7 C117.63 118.76 117.63 120.83 117.64 122.9 C117.65 127.98 117.67 133.05 117.69 138.13 C121.98 138.46 126.27 138.79 130.69 139.13 C130.73 143.37 130.77 147.61 130.8 151.84 C130.81 153.28 130.82 154.72 130.84 156.17 C130.86 158.24 130.87 160.31 130.88 162.38 C130.89 163.62 130.9 164.87 130.91 166.15 C130.69 169.13 130.69 169.13 128.69 171.13 C126.33 171.38 126.33 171.38 123.33 171.38 C122.19 171.39 121.05 171.39 119.88 171.39 C118.63 171.39 117.37 171.38 116.08 171.38 C114.77 171.38 113.45 171.38 112.1 171.38 C108.48 171.39 104.87 171.38 101.26 171.37 C97.48 171.36 93.71 171.36 89.93 171.36 C83.59 171.36 77.25 171.35 70.91 171.34 C63.57 171.32 56.23 171.32 48.89 171.32 C41.85 171.32 34.8 171.31 27.75 171.31 C24.74 171.3 21.74 171.3 18.73 171.3 C14.54 171.3 10.35 171.29 6.16 171.28 C4.28 171.28 4.28 171.28 2.36 171.28 C1.22 171.28 0.09 171.27 -1.08 171.27 C-2.07 171.27 -3.07 171.26 -4.09 171.26 C-6.31 171.13 -6.31 171.13 -7.31 170.13 C-7.41 167.96 -7.44 165.78 -7.43 163.6 C-7.44 162.56 -7.44 162.56 -7.44 161.5 C-7.44 159.17 -7.43 156.84 -7.43 154.51 C-7.43 152.84 -7.43 151.18 -7.43 149.51 C-7.43 144.98 -7.42 140.44 -7.42 135.91 C-7.41 131.17 -7.41 126.44 -7.41 121.7 C-7.4 112.73 -7.4 103.76 -7.39 94.79 C-7.38 84.58 -7.37 74.37 -7.36 64.16 C-7.35 43.15 -7.34 22.14 -7.31 1.13 C-4.74 -0.16 -2.89 0 0 0 Z M7.69 25.13 C7.59 26.51 7.56 27.89 7.56 29.27 C7.55 30.15 7.55 31.03 7.55 31.93 C7.55 32.88 7.55 33.84 7.55 34.82 C7.55 35.79 7.55 36.77 7.55 37.77 C7.55 39.83 7.55 41.89 7.56 43.95 C7.56 47.12 7.56 50.29 7.55 53.45 C7.55 55.45 7.55 57.45 7.55 59.45 C7.55 60.4 7.55 61.35 7.55 62.34 C7.55 63.22 7.55 64.09 7.56 65 C7.56 65.77 7.56 66.55 7.56 67.35 C7.49 69.16 7.49 69.16 8.69 70.13 C10.06 70.23 11.44 70.26 12.82 70.26 C14.14 70.27 14.14 70.27 15.48 70.27 C16.44 70.27 17.39 70.27 18.37 70.27 C19.83 70.27 19.83 70.27 21.32 70.27 C23.38 70.27 25.44 70.27 27.51 70.26 C30.67 70.26 33.84 70.26 37.01 70.27 C39 70.27 41 70.27 43 70.27 C43.95 70.27 44.91 70.27 45.89 70.27 C46.77 70.27 47.64 70.27 48.55 70.26 C49.33 70.26 50.1 70.26 50.9 70.26 C52.71 70.33 52.71 70.33 53.69 69.13 C53.78 67.72 53.8 66.3 53.8 64.89 C53.8 63.99 53.8 63.09 53.8 62.16 C53.79 61.18 53.79 60.2 53.78 59.19 C53.78 58.19 53.78 57.2 53.78 56.17 C53.77 52.97 53.76 49.77 53.75 46.57 C53.74 44.41 53.74 42.24 53.73 40.08 C53.72 34.77 53.71 29.45 53.69 24.13 C47.3 24.11 40.91 24.09 34.51 24.08 C32.34 24.07 30.16 24.07 27.99 24.06 C24.87 24.05 21.75 24.04 18.63 24.04 C17.65 24.03 16.67 24.03 15.66 24.02 C14.76 24.02 13.86 24.02 12.93 24.02 C12.13 24.02 11.34 24.02 10.51 24.01 C8.67 23.93 8.67 23.93 7.69 25.13 Z M59.69 30.13 C59.69 31.45 59.69 32.77 59.69 34.13 C76.19 34.13 92.69 34.13 109.69 34.13 C109.69 32.81 109.69 31.49 109.69 30.13 C93.19 30.13 76.69 30.13 59.69 30.13 Z M59.69 57.13 C59.69 58.12 59.69 59.11 59.69 60.13 C61.28 61.73 62.96 61.26 65.17 61.26 C66.61 61.27 66.61 61.27 68.07 61.27 C69.62 61.27 69.62 61.27 71.21 61.27 C72.27 61.27 73.33 61.27 74.42 61.27 C76.67 61.27 78.91 61.27 81.16 61.26 C84.6 61.26 88.05 61.26 91.5 61.27 C93.67 61.27 95.85 61.27 98.03 61.27 C99.58 61.27 99.58 61.27 101.17 61.27 C102.12 61.27 103.08 61.27 104.07 61.26 C104.91 61.26 105.76 61.26 106.63 61.26 C108.75 61.26 108.75 61.26 110.69 60.13 C110.19 58.65 110.19 58.65 109.69 57.13 C93.19 57.13 76.69 57.13 59.69 57.13 Z M12.69 84.13 C13.02 85.45 13.35 86.77 13.69 88.13 C26.04 88.2 38.39 88.26 50.74 88.29 C56.48 88.3 62.21 88.33 67.95 88.36 C73.48 88.39 79.01 88.41 84.54 88.42 C86.65 88.42 88.77 88.43 90.88 88.45 C93.83 88.47 96.79 88.48 99.74 88.47 C101.06 88.49 101.06 88.49 102.41 88.51 C105.08 88.53 105.08 88.53 108.69 88.13 C109.35 87.14 110.01 86.15 110.69 85.13 C108.04 82.48 106.1 82.89 102.49 82.87 C101.19 82.88 101.19 82.88 99.86 82.89 C98.95 82.89 98.03 82.89 97.09 82.89 C94.06 82.88 91.03 82.89 88 82.9 C85.9 82.9 83.8 82.9 81.7 82.9 C77.29 82.91 72.89 82.91 68.48 82.93 C62.83 82.94 57.17 82.95 51.51 82.95 C47.18 82.95 42.84 82.95 38.5 82.96 C36.42 82.96 34.33 82.97 32.24 82.97 C29.33 82.97 26.42 82.98 23.51 82.99 C22.64 82.99 21.77 82.99 20.88 82.99 C16.65 82.89 16.65 82.89 12.69 84.13 Z M12.69 111.13 C12.69 112.12 12.69 113.11 12.69 114.13 C16.04 115.81 19.82 115.29 23.51 115.29 C24.42 115.3 25.34 115.3 26.28 115.31 C29.31 115.32 32.34 115.33 35.37 115.34 C37.47 115.34 39.57 115.35 41.67 115.35 C46.08 115.36 50.48 115.37 54.89 115.37 C60.54 115.38 66.2 115.4 71.86 115.43 C76.19 115.45 80.53 115.46 84.87 115.46 C86.95 115.46 89.04 115.47 91.13 115.48 C94.04 115.5 96.95 115.5 99.86 115.49 C101.16 115.5 101.16 115.5 102.49 115.52 C105.13 115.54 105.13 115.54 108.69 115.13 C109.35 114.14 110.01 113.15 110.69 112.13 C108.04 109.48 106.1 109.89 102.49 109.87 C101.19 109.88 101.19 109.88 99.86 109.89 C98.95 109.89 98.03 109.89 97.09 109.89 C94.06 109.88 91.03 109.89 88 109.9 C85.9 109.9 83.8 109.9 81.7 109.9 C77.29 109.91 72.89 109.91 68.48 109.93 C62.83 109.94 57.17 109.95 51.51 109.95 C47.18 109.95 42.84 109.95 38.5 109.96 C36.42 109.96 34.33 109.97 32.24 109.97 C29.33 109.97 26.42 109.98 23.51 109.99 C22.64 109.99 21.77 109.99 20.88 109.99 C16.65 109.89 16.65 109.89 12.69 111.13 Z M13.69 137.13 C13.36 138.45 13.03 139.77 12.69 141.13 C44.7 141.13 76.71 141.13 109.69 141.13 C109.69 140.14 109.69 139.15 109.69 138.13 C107.8 136.24 105.05 137.01 102.53 137.01 C101.21 137.01 101.21 137.01 99.85 137.02 C98.92 137.02 98 137.02 97.04 137.02 C93.96 137.02 90.89 137.03 87.81 137.04 C85.68 137.04 83.55 137.04 81.42 137.04 C75.81 137.04 70.19 137.05 64.58 137.07 C58.85 137.08 53.13 137.08 47.41 137.08 C36.17 137.1 24.93 137.11 13.69 137.13 Z " fill="#FFFFFF" transform="translate(24.314208984375,18.866287231445313)"/>
<path d="M0 0 C12.54 0 25.08 0 38 0 C38 12.54 38 25.08 38 38 C25.46 38 12.92 38 0 38 C0 25.46 0 12.92 0 0 Z " fill="#FFFFFF" transform="translate(36,47)"/>
<path d="M0 0 C12.54 0 25.08 0 38 0 C38 12.54 38 25.08 38 38 C31.92 38.02 25.83 38.04 19.56 38.06 C16.68 38.08 16.68 38.08 13.74 38.09 C12.22 38.09 10.71 38.1 9.19 38.1 C8.4 38.1 7.6 38.11 6.79 38.11 C4.86 38.11 2.93 38.06 1 38 C0 37 0 37 -0.11 33.49 C-0.11 31.93 -0.11 30.37 -0.1 28.81 C-0.1 27.72 -0.1 27.72 -0.09 26.61 C-0.09 23.88 -0.08 21.16 -0.06 18.44 C-0.04 12.35 -0.02 6.27 0 0 Z M27.26 10.29 C26.7 10.87 26.13 11.46 25.55 12.06 C24.93 12.69 24.31 13.33 23.67 13.98 C23.04 14.64 22.4 15.31 21.75 16 C21.1 16.67 20.45 17.34 19.78 18.02 C18.18 19.67 16.59 21.33 15 23 C12.66 20.74 10.81 18.72 9 16 C7.68 16 6.36 16 5 16 C6.64 20.78 9.27 24.79 12 29 C15.33 28.4 17.21 27.28 19.75 25.06 C20.36 24.54 20.98 24.01 21.61 23.47 C23.23 22.1 23.23 22.1 23 20 C23.54 19.79 24.07 19.59 24.62 19.38 C27.91 17.47 30.69 15.02 33 12 C33 11.01 33 10.02 33 9 C29.18 8.6 29.18 8.6 27.26 10.29 Z " fill="#FFFFFF" transform="translate(145,63)"/>
<path d="M0 0 C1.56 0 3.12 0.01 4.68 0.02 C5.41 0.02 6.13 0.02 6.88 0.02 C9.61 0.02 12.33 0.04 15.05 0.05 C21.14 0.07 27.22 0.09 33.49 0.11 C33.49 12.65 33.49 25.19 33.49 38.11 C20.95 38.11 8.41 38.11 -4.51 38.11 C-4.53 32.03 -4.55 25.94 -4.57 19.68 C-4.58 17.75 -4.59 15.83 -4.6 13.85 C-4.6 12.34 -4.61 10.82 -4.61 9.3 C-4.61 8.51 -4.62 7.72 -4.62 6.9 C-4.62 4.97 -4.57 3.04 -4.51 1.11 C-3.51 0.11 -3.51 0.11 0 0 Z M23.76 10.62 C22.82 11.64 22.82 11.64 21.86 12.68 C17.74 16.98 13.27 20.57 8.49 24.11 C8.19 23.33 7.9 22.54 7.59 21.73 C6.52 19.18 5.56 17.9 3.49 16.11 C2.5 16.44 1.51 16.77 0.49 17.11 C2.08 22.2 5.23 25.99 8.49 30.11 C12.47 27.95 15.35 25.44 18.49 22.18 C21.01 19.56 23.37 17.2 26.3 15.05 C27.02 14.41 27.75 13.77 28.49 13.11 C28.49 11.79 28.49 10.47 28.49 9.11 C25.49 8.79 25.49 8.79 23.76 10.62 Z " fill="#FFFFFF" transform="translate(149.510009765625,115.886474609375)"/>
<path d="M0 0 C17.57 -0.05 35.13 -0.08 52.7 -0.1 C60.86 -0.11 69.01 -0.13 77.17 -0.15 C84.28 -0.17 91.39 -0.18 98.49 -0.19 C102.26 -0.19 106.02 -0.2 109.79 -0.21 C113.98 -0.23 118.18 -0.23 122.38 -0.23 C123.64 -0.23 124.89 -0.24 126.18 -0.25 C127.89 -0.24 127.89 -0.24 129.63 -0.24 C130.63 -0.24 131.62 -0.24 132.65 -0.25 C135 0 135 0 137 2 C137.24 4.02 137.24 4.02 137.23 6.54 C137.23 7.95 137.23 7.95 137.23 9.39 C137.22 10.41 137.21 11.43 137.2 12.48 C137.19 13.52 137.19 14.56 137.19 15.63 C137.18 18.96 137.15 22.29 137.12 25.62 C137.11 27.88 137.11 30.14 137.1 32.39 C137.08 37.93 137.04 43.46 137 49 C135.35 49 133.7 49 132 49 C131.99 47.84 131.98 46.68 131.97 45.48 C131.93 41.17 131.87 36.87 131.79 32.56 C131.76 30.69 131.74 28.83 131.73 26.96 C131.71 24.28 131.66 21.6 131.61 18.92 C131.61 17.67 131.61 17.67 131.61 16.4 C131.59 15.62 131.57 14.84 131.55 14.03 C131.54 13.35 131.53 12.67 131.52 11.96 C130.75 9.07 129.28 7.89 127 6 C124.47 5.4 124.47 5.4 121.66 5.48 C120.58 5.47 119.49 5.45 118.38 5.44 C117.2 5.44 116.01 5.45 114.8 5.45 C113.55 5.44 112.3 5.43 111.01 5.42 C107.59 5.4 104.17 5.39 100.75 5.39 C97.17 5.39 93.59 5.36 90.02 5.34 C83.25 5.3 76.47 5.28 69.7 5.27 C61.99 5.25 54.28 5.21 46.57 5.17 C30.72 5.09 14.86 5.04 -1 5 C-0.67 3.35 -0.34 1.7 0 0 Z " fill="#FFFFFF" transform="translate(27,10)"/>
<path d="M0 0 C1.65 0 3.3 0 5 0 C5.06 3.46 5.09 6.92 5.12 10.38 C5.14 11.36 5.16 12.34 5.18 13.36 C5.18 14.3 5.19 15.24 5.2 16.21 C5.21 17.08 5.22 17.95 5.23 18.85 C5 21 5 21 3 23 C2.01 23 1.02 23 0 23 C0 15.41 0 7.82 0 0 Z " fill="#FFFFFF" transform="translate(159,158)"/>
<path d="M0 0 C1.65 0 3.3 0 5 0 C5 2.31 5 4.62 5 7 C3.35 7 1.7 7 0 7 C0 4.69 0 2.38 0 0 Z " fill="#FFFFFF" transform="translate(159,105)"/>
</svg>
