<?xml version="1.0" encoding="UTF-8"?>
<!-- Generator: visioncortex VTracer 0.6.3 -->
<svg version="1.1" xmlns="http://www.w3.org/2000/svg" width="512" height="512">
<path d="M0 0 C1.94 -0.01 3.89 -0.01 5.83 -0.02 C11.07 -0.04 16.3 -0.04 21.54 -0.03 C25.93 -0.03 30.32 -0.03 34.71 -0.04 C45.08 -0.05 55.45 -0.05 65.82 -0.04 C76.47 -0.03 87.12 -0.04 97.77 -0.07 C106.96 -0.09 116.15 -0.1 125.33 -0.09 C130.8 -0.09 136.27 -0.09 141.74 -0.11 C146.89 -0.13 152.03 -0.12 157.18 -0.1 C159.06 -0.1 160.93 -0.1 162.8 -0.11 C177.98 -0.19 192.91 1.42 206.97 7.59 C207.66 7.89 208.35 8.18 209.07 8.49 C225.51 15.79 240.91 27.59 251.22 42.4 C251.55 43.39 251.88 44.38 252.22 45.4 C251.3 45.6 250.38 45.8 249.43 46 C232.17 50.08 217.81 58.5 208.25 73.88 C203.84 81.38 200.13 89.29 196.29 97.09 C195.4 98.87 194.52 100.65 193.64 102.43 C191.49 106.75 189.36 111.08 187.22 115.4 C182.71 114.55 178.7 113.12 174.43 111.44 C165.13 108.44 156.09 108.08 146.37 108.07 C144.94 108.06 143.52 108.05 142.09 108.05 C139.11 108.04 136.13 108.03 133.15 108.03 C129.38 108.03 125.61 108.01 121.84 107.97 C118.89 107.95 115.94 107.95 113 107.95 C111.61 107.94 110.22 107.94 108.83 107.92 C89.72 107.72 71.42 112.69 57.28 126.08 C45.37 138.03 39.19 153.97 38.91 170.65 C38.89 171.32 38.88 171.99 38.86 172.67 C38.86 177.37 39.66 181.63 40.75 186.2 C41.16 187.94 41.16 187.94 41.58 189.72 C41.9 191.05 41.9 191.05 42.22 192.4 C23.55 192.5 4.88 192.57 -13.79 192.61 C-22.46 192.63 -31.13 192.66 -39.8 192.71 C-47.36 192.75 -54.91 192.77 -62.47 192.78 C-66.47 192.79 -70.47 192.8 -74.47 192.83 C-78.24 192.85 -82.01 192.86 -85.78 192.86 C-87.16 192.86 -88.54 192.87 -89.92 192.88 C-100.49 192.99 -100.49 192.99 -105.4 190.75 C-110.08 186.14 -112.22 182.67 -112.32 176.15 C-112.31 175.35 -112.3 174.56 -112.29 173.75 C-112.3 172.47 -112.3 172.47 -112.32 171.17 C-112.33 168.37 -112.32 165.57 -112.31 162.76 C-112.31 160.8 -112.31 158.83 -112.32 156.87 C-112.33 152.74 -112.32 148.61 -112.3 144.49 C-112.28 139.25 -112.29 134.01 -112.31 128.78 C-112.33 124.71 -112.32 120.64 -112.31 116.57 C-112.31 114.65 -112.31 112.72 -112.32 110.79 C-112.44 80.64 -103.18 54.74 -82.78 32.4 C-82.16 31.72 -81.54 31.03 -80.91 30.32 C-59.58 7.71 -29.93 -0.08 0 0 Z " fill="#FFFFFF" transform="translate(111.776611328125,255.595947265625)"/>
<path d="M0 0 C22.13 17.8 36.27 44.02 39.39 72.25 C41.51 101.99 34.29 129.97 15.02 153.06 C-4.36 175.39 -30.05 188.81 -59.61 191.25 C-91.48 193.1 -119.23 182.11 -142.93 161.19 C-163.18 141.98 -174.24 114.79 -175.01 87.18 C-175.33 59.39 -166.81 34.43 -148.61 13.25 C-148.09 12.58 -147.57 11.92 -147.04 11.24 C-111.48 -32.87 -42.33 -32.84 0 0 Z " fill="#FFFFFF" transform="translate(259.60546875,22.75390625)"/>
<path d="M0 0 C8.25 5.05 12.57 13.92 17.29 22.04 C19.38 25.64 21.5 29.23 23.61 32.82 C24.04 33.55 24.47 34.28 24.91 35.04 C28.93 41.88 33.05 48.66 37.19 55.44 C44.43 67.31 51.54 79.25 58.62 91.22 C59.01 91.88 59.4 92.54 59.81 93.22 C60.54 94.46 61.27 95.7 62 96.93 C63.51 99.48 65.04 101.97 66.69 104.44 C68.76 104.87 68.76 104.87 71.18 104.77 C72.11 104.78 73.04 104.78 74 104.78 C75.01 104.76 76.02 104.75 77.07 104.74 C79.21 104.75 81.35 104.75 83.49 104.76 C86.86 104.76 90.24 104.75 93.61 104.72 C96.87 104.7 100.12 104.72 103.38 104.74 C104.87 104.71 104.87 104.71 106.4 104.68 C113.64 104.76 118.22 106.67 123.69 111.44 C129.01 117.1 129.22 122.45 129.16 130.07 C128.29 136.31 125.44 140.42 120.69 144.44 C113.43 149.12 106.71 149.04 98.26 149 C96.86 149.01 95.46 149.02 94.06 149.02 C91.14 149.03 88.21 149.03 85.29 149.01 C81.57 149 77.85 149.02 74.13 149.06 C71.24 149.08 68.35 149.08 65.46 149.07 C64.09 149.07 62.72 149.07 61.35 149.09 C52.72 149.17 45.88 148.51 38.69 143.44 C36.46 141.23 36.46 141.23 35.05 138.96 C34.5 138.09 33.95 137.21 33.38 136.32 C32.82 135.37 32.26 134.42 31.69 133.44 C31.07 132.42 30.46 131.41 29.83 130.36 C28.15 127.55 26.5 124.72 24.86 121.89 C23.03 118.71 21.18 115.54 19.34 112.37 C18.96 111.72 18.58 111.07 18.19 110.4 C14.01 103.26 9.74 96.19 5.44 89.12 C5.08 88.54 4.73 87.95 4.36 87.35 C1.18 82.13 -2 76.92 -5.3 71.77 C-7.31 68.44 -7.31 68.44 -7.31 66.44 C-7.97 66.44 -8.63 66.44 -9.31 66.44 C-9.54 67.21 -9.76 67.98 -9.99 68.78 C-11.77 73.71 -14.11 78.29 -16.48 82.96 C-16.99 83.98 -17.5 85 -18.02 86.05 C-19.66 89.31 -21.3 92.56 -22.94 95.81 C-24.02 97.96 -25.1 100.11 -26.18 102.26 C-29.63 109.14 -33.09 116.02 -36.55 122.89 C-41.09 131.91 -45.5 140.96 -49.71 150.14 C-53.28 157.78 -56.72 164.15 -64.31 168.44 C-70.51 170.5 -78.54 170.64 -84.62 168.06 C-92.83 162.92 -98.16 152.93 -103.33 144.98 C-103.96 144.02 -104.58 143.07 -105.23 142.09 C-107.2 139.08 -109.16 136.07 -111.12 133.06 C-113.11 130.03 -115.09 127 -117.08 123.97 C-118.31 122.1 -119.53 120.22 -120.76 118.34 C-121.31 117.49 -121.87 116.65 -122.44 115.77 C-123.16 114.66 -123.16 114.66 -123.9 113.52 C-124.88 112.08 -125.92 110.67 -126.99 109.29 C-128.31 107.44 -128.31 107.44 -128.31 105.44 C-128.9 105.45 -129.48 105.46 -130.08 105.46 C-136.18 105.55 -142.28 105.61 -148.38 105.66 C-150.65 105.68 -152.93 105.7 -155.2 105.74 C-158.48 105.79 -161.75 105.81 -165.03 105.83 C-166.54 105.86 -166.54 105.86 -168.09 105.89 C-175.37 105.89 -181.07 104.64 -186.37 99.4 C-187.05 98.4 -187.05 98.4 -187.75 97.38 C-188.46 96.37 -188.46 96.37 -189.18 95.34 C-192.41 89.91 -191.73 83.54 -191.31 77.44 C-189.24 71.33 -185.39 67.78 -180.04 64.32 C-173.97 61.39 -167.48 61.84 -160.88 61.87 C-159.48 61.87 -158.08 61.86 -156.68 61.85 C-153.76 61.84 -150.84 61.85 -147.91 61.86 C-144.19 61.88 -140.47 61.85 -136.75 61.82 C-133.87 61.8 -130.98 61.8 -128.09 61.81 C-126.72 61.81 -125.35 61.8 -123.98 61.79 C-115.36 61.71 -108.52 62.41 -101.31 67.44 C-98.64 70.25 -98.64 70.25 -96.56 73.44 C-96.17 74.02 -95.79 74.6 -95.39 75.2 C-94.51 76.51 -93.65 77.83 -92.8 79.15 C-91.08 81.79 -89.33 84.41 -87.57 87.02 C-84.13 92.15 -80.71 97.29 -77.31 102.44 C-74.11 98.61 -72.1 94.25 -69.9 89.8 C-69.47 88.93 -69.04 88.06 -68.59 87.16 C-67.65 85.28 -66.72 83.39 -65.78 81.5 C-64.3 78.51 -62.82 75.52 -61.33 72.53 C-57.11 64.04 -52.89 55.55 -48.68 47.05 C-46.1 41.85 -43.51 36.65 -40.92 31.45 C-39.94 29.47 -38.96 27.49 -37.98 25.51 C-36.61 22.74 -35.23 19.97 -33.85 17.2 C-33.45 16.39 -33.05 15.57 -32.63 14.73 C-26.25 1.99 -14.48 -6.34 0 0 Z " fill="#FFFFFF" transform="translate(383.3125,342.5625)"/>
</svg>
