<?xml version="1.0" encoding="UTF-8"?>
<!-- Generator: visioncortex VTracer 0.6.3 -->
<svg version="1.1" xmlns="http://www.w3.org/2000/svg" width="512" height="512">
<path d="M0 0 C0.81 -0.01 1.63 -0.01 2.47 -0.02 C4.18 -0.03 5.9 -0.03 7.61 -0.03 C10.21 -0.04 12.81 -0.08 15.41 -0.11 C31.67 -0.23 31.67 -0.23 38.42 4.34 C39.23 4.88 40.04 5.42 40.87 5.98 C47.63 12.03 52.91 18.98 53.66 28.34 C53.65 29.39 53.65 30.44 53.65 31.52 C53.64 33.33 53.64 33.33 53.64 35.16 C53.63 36.45 53.62 37.73 53.61 39.05 C53.61 40.38 53.61 41.72 53.6 43.06 C53.6 46.56 53.58 50.06 53.56 53.56 C53.53 57.14 53.53 60.72 53.52 64.3 C53.49 71.31 53.46 78.32 53.42 85.34 C54.15 85.33 54.88 85.32 55.63 85.31 C62.54 85.23 69.46 85.17 76.37 85.13 C79.92 85.11 83.48 85.08 87.03 85.03 C91.12 84.98 95.22 84.96 99.32 84.95 C100.58 84.92 101.84 84.9 103.14 84.88 C113.8 84.88 121.84 87.08 129.66 94.48 C136.37 101.59 138.73 108.18 138.75 117.92 C138.76 118.73 138.77 119.55 138.77 120.38 C138.78 122.1 138.79 123.81 138.79 125.53 C138.79 128.13 138.83 130.73 138.87 133.33 C138.98 149.58 138.98 149.58 134.42 156.34 C133.61 157.55 133.61 157.55 132.78 158.79 C126.72 165.55 119.77 170.83 110.42 171.58 C109.37 171.57 108.31 171.57 107.23 171.56 C106.03 171.56 104.83 171.56 103.59 171.56 C101.67 171.55 101.67 171.55 99.71 171.53 C98.37 171.53 97.03 171.52 95.7 171.52 C92.2 171.52 88.69 171.5 85.19 171.47 C81.61 171.45 78.03 171.44 74.45 171.43 C67.44 171.41 60.43 171.38 53.42 171.34 C53.43 172.06 53.44 172.79 53.45 173.53 C53.55 180.42 53.63 187.3 53.68 194.18 C53.7 197.72 53.74 201.26 53.8 204.8 C53.86 208.88 53.88 212.96 53.91 217.04 C53.93 218.29 53.96 219.54 53.98 220.83 C53.99 231.23 51.77 240.04 44.61 247.84 C37.58 254.23 30.51 256.49 21.13 256.57 C20.31 256.58 19.49 256.59 18.65 256.6 C16.92 256.61 15.18 256.62 13.45 256.63 C11.69 256.64 9.93 256.66 8.17 256.69 C-10.7 257.01 -10.7 257.01 -17.58 252.34 C-18.39 251.79 -19.2 251.25 -20.04 250.7 C-26.8 244.64 -32.07 237.69 -32.82 228.34 C-32.82 227.28 -32.81 226.23 -32.81 225.15 C-32.81 223.95 -32.81 222.75 -32.81 221.51 C-32.8 220.23 -32.79 218.95 -32.78 217.62 C-32.77 216.29 -32.77 214.95 -32.77 213.62 C-32.76 210.11 -32.74 206.61 -32.72 203.11 C-32.7 199.53 -32.69 195.95 -32.68 192.37 C-32.66 185.36 -32.62 178.35 -32.58 171.34 C-33.31 171.35 -34.03 171.36 -34.78 171.37 C-41.66 171.47 -48.55 171.55 -55.43 171.59 C-58.97 171.62 -62.5 171.66 -66.04 171.71 C-70.12 171.78 -74.2 171.8 -78.29 171.82 C-80.16 171.86 -80.16 171.86 -82.07 171.9 C-92.47 171.91 -101.29 169.69 -109.08 162.52 C-115.48 155.5 -117.73 148.43 -117.82 139.05 C-117.83 138.23 -117.84 137.41 -117.84 136.57 C-117.86 134.84 -117.87 133.1 -117.88 131.37 C-117.89 129.61 -117.91 127.85 -117.94 126.09 C-118.26 107.21 -118.26 107.21 -113.58 100.34 C-113.04 99.53 -112.5 98.72 -111.94 97.88 C-105.88 91.12 -98.94 85.85 -89.58 85.1 C-88.53 85.1 -87.48 85.1 -86.39 85.11 C-85.19 85.11 -83.99 85.11 -82.75 85.11 C-80.83 85.12 -80.83 85.12 -78.87 85.14 C-77.53 85.14 -76.2 85.15 -74.86 85.15 C-71.36 85.16 -67.86 85.18 -64.36 85.2 C-60.78 85.22 -57.2 85.23 -53.62 85.24 C-46.61 85.26 -39.59 85.29 -32.58 85.34 C-32.59 84.61 -32.6 83.88 -32.61 83.13 C-32.69 76.21 -32.75 69.3 -32.79 62.38 C-32.81 58.83 -32.84 55.28 -32.88 51.73 C-32.94 47.63 -32.96 43.53 -32.97 39.44 C-32.99 38.18 -33.01 36.92 -33.04 35.62 C-33.04 24.95 -30.84 16.92 -23.44 9.09 C-16.33 2.38 -9.73 0.03 0 0 Z M-9.58 27.34 C-10.72 30.76 -10.71 33.41 -10.72 37.02 C-10.73 38.04 -10.73 38.04 -10.73 39.07 C-10.74 40.53 -10.75 42 -10.75 43.46 C-10.76 45.78 -10.77 48.1 -10.79 50.43 C-10.84 57.02 -10.89 63.62 -10.91 70.22 C-10.92 74.25 -10.95 78.29 -10.99 82.33 C-11 83.86 -11.01 85.4 -11 86.94 C-11 89.09 -11.02 91.24 -11.05 93.39 C-11.06 95.23 -11.06 95.23 -11.07 97.1 C-11.68 100.94 -12.88 102.59 -15.58 105.34 C-18.46 106.77 -20.94 106.48 -24.16 106.49 C-24.83 106.5 -25.51 106.5 -26.2 106.51 C-27.67 106.52 -29.14 106.53 -30.6 106.54 C-32.93 106.55 -35.25 106.57 -37.58 106.59 C-44.19 106.65 -50.8 106.7 -57.41 106.74 C-61.45 106.76 -65.49 106.79 -69.53 106.84 C-71.07 106.85 -72.61 106.86 -74.15 106.86 C-76.31 106.87 -78.46 106.89 -80.62 106.92 C-81.85 106.93 -83.07 106.94 -84.34 106.94 C-88.7 107.47 -91.3 109.05 -94.37 112.13 C-97 116.9 -96.09 122.9 -96.08 128.21 C-96.11 129.48 -96.14 130.75 -96.17 132.05 C-96.38 139.58 -96.38 139.58 -93.24 146.16 C-89.13 149.53 -86.06 149.46 -80.9 149.48 C-79.88 149.48 -79.88 149.48 -78.85 149.49 C-77.38 149.5 -75.92 149.5 -74.45 149.5 C-72.13 149.51 -69.81 149.53 -67.49 149.55 C-60.9 149.6 -54.3 149.65 -47.7 149.66 C-43.66 149.67 -39.63 149.7 -35.59 149.74 C-34.06 149.76 -32.52 149.76 -30.98 149.76 C-28.83 149.76 -26.68 149.78 -24.53 149.81 C-23.3 149.81 -22.08 149.82 -20.82 149.82 C-16.98 150.43 -15.33 151.64 -12.58 154.34 C-11.14 157.21 -11.44 159.7 -11.42 162.91 C-11.42 163.58 -11.41 164.26 -11.41 164.95 C-11.4 166.42 -11.39 167.89 -11.38 169.36 C-11.37 171.68 -11.35 174.01 -11.33 176.33 C-11.27 182.94 -11.21 189.55 -11.18 196.16 C-11.16 200.2 -11.12 204.24 -11.08 208.29 C-11.07 209.83 -11.06 211.37 -11.05 212.9 C-11.05 215.06 -11.03 217.22 -11 219.37 C-10.99 220.6 -10.98 221.83 -10.97 223.09 C-10.45 227.45 -8.87 230.05 -5.79 233.12 C-1.02 235.75 4.98 234.85 10.29 234.84 C11.56 234.86 12.83 234.89 14.13 234.92 C21.67 235.14 21.67 235.14 28.24 231.99 C31.61 227.88 31.55 224.82 31.56 219.65 C31.57 218.64 31.57 218.64 31.57 217.6 C31.58 216.14 31.58 214.67 31.59 213.21 C31.59 210.89 31.61 208.57 31.63 206.25 C31.68 199.65 31.73 193.05 31.74 186.46 C31.75 182.42 31.78 178.38 31.83 174.35 C31.84 172.81 31.84 171.27 31.84 169.74 C31.84 167.58 31.86 165.43 31.89 163.28 C31.9 161.45 31.9 161.45 31.91 159.57 C32.51 155.74 33.72 154.08 36.42 151.34 C39.29 149.9 41.78 150.2 44.99 150.18 C45.67 150.17 46.34 150.17 47.04 150.16 C48.5 150.15 49.97 150.14 51.44 150.14 C53.76 150.12 56.09 150.11 58.41 150.08 C65.02 150.02 71.63 149.97 78.24 149.93 C82.29 149.91 86.33 149.88 90.37 149.83 C91.91 149.82 93.45 149.81 94.99 149.81 C97.14 149.8 99.3 149.78 101.46 149.75 C102.68 149.74 103.91 149.74 105.17 149.73 C109.54 149.2 112.14 147.63 115.2 144.54 C117.83 139.77 116.93 133.77 116.92 128.46 C116.95 127.19 116.97 125.93 117 124.62 C117.22 117.09 117.22 117.09 114.07 110.52 C109.96 107.14 106.9 107.21 101.73 107.19 C100.72 107.19 100.72 107.19 99.69 107.18 C98.22 107.18 96.75 107.17 95.29 107.17 C92.97 107.16 90.65 107.14 88.33 107.13 C81.73 107.07 75.13 107.03 68.54 107.01 C64.5 107 60.46 106.97 56.43 106.93 C54.89 106.92 53.36 106.91 51.82 106.91 C49.67 106.92 47.52 106.89 45.36 106.87 C44.14 106.86 42.92 106.85 41.66 106.85 C37.82 106.24 36.16 105.03 33.42 102.34 C31.98 99.46 32.28 96.98 32.26 93.76 C32.26 93.09 32.25 92.41 32.24 91.72 C32.23 90.25 32.23 88.78 32.22 87.31 C32.21 84.99 32.19 82.66 32.17 80.34 C32.1 73.73 32.05 67.12 32.02 60.51 C32 56.47 31.96 52.43 31.92 48.39 C31.9 46.85 31.89 45.31 31.89 43.77 C31.88 41.61 31.86 39.45 31.83 37.3 C31.83 36.07 31.82 34.84 31.81 33.58 C31.28 29.22 29.71 26.62 26.62 23.55 C21.85 20.92 15.85 21.83 10.54 21.84 C9.28 21.81 8.01 21.78 6.7 21.75 C-2.66 21.69 -2.66 21.69 -9.58 27.34 Z " fill="#FFFFFF" transform="translate(373.58203125,255.6640625)"/>
<path d="M0 0 C2.07 -0.01 4.15 -0.02 6.22 -0.03 C11.8 -0.05 17.37 -0.05 22.95 -0.04 C27.61 -0.03 32.28 -0.04 36.94 -0.05 C47.94 -0.06 58.94 -0.06 69.94 -0.04 C81.28 -0.03 92.62 -0.04 103.96 -0.07 C113.72 -0.1 123.48 -0.11 133.24 -0.1 C139.06 -0.09 144.87 -0.1 150.69 -0.12 C156.16 -0.14 161.61 -0.13 167.08 -0.11 C169.08 -0.1 171.08 -0.1 173.09 -0.12 C175.82 -0.13 178.55 -0.12 181.28 -0.09 C182.08 -0.11 182.87 -0.12 183.69 -0.13 C187.75 -0.06 189.55 0.35 192.75 2.95 C195.61 6.59 196.12 8.81 196.07 13.5 C195.61 16.72 194.1 18.34 191.78 20.53 C188.01 23.11 184.02 22.81 179.62 22.79 C178.8 22.79 177.97 22.79 177.11 22.79 C174.33 22.8 171.55 22.8 168.76 22.79 C166.77 22.79 164.77 22.8 162.78 22.8 C158.48 22.81 154.18 22.81 149.88 22.81 C143.07 22.81 136.26 22.82 129.45 22.84 C110.09 22.88 90.72 22.91 71.35 22.91 C60.66 22.92 49.97 22.94 39.27 22.97 C32.52 22.99 25.76 22.99 19.01 22.98 C14.78 22.98 10.55 22.99 6.33 23.01 C4.38 23.02 2.44 23.02 0.5 23.01 C-21.5 22.91 -40.41 27.38 -57.22 42.53 C-57.85 43.09 -58.49 43.64 -59.14 44.21 C-64.25 48.94 -67.74 54.55 -71.22 60.53 C-71.92 61.71 -71.92 61.71 -72.63 62.9 C-80.17 76.6 -80.82 91.24 -80.83 106.47 C-80.84 108.33 -80.86 110.19 -80.88 112.05 C-80.92 116.89 -80.94 121.73 -80.96 126.57 C-80.98 131.53 -81.02 136.49 -81.06 141.46 C-81.13 151.15 -81.18 160.84 -81.22 170.53 C-80.28 170.53 -79.33 170.53 -78.36 170.52 C-55.43 170.43 -32.49 170.37 -9.56 170.33 C1.53 170.31 12.62 170.28 23.71 170.23 C33.38 170.19 43.05 170.17 52.71 170.16 C57.83 170.15 62.95 170.14 68.07 170.11 C72.89 170.08 77.71 170.08 82.52 170.08 C84.29 170.08 86.06 170.07 87.83 170.06 C90.24 170.04 92.66 170.04 95.07 170.05 C95.77 170.04 96.47 170.03 97.19 170.02 C102.15 170.08 104.95 171.45 108.78 174.53 C110.79 177.4 111.05 179.52 110.72 182.97 C110.66 183.71 110.61 184.45 110.56 185.22 C109.39 188.7 107.63 190.23 104.78 192.53 C101.84 193.02 99.48 193.21 96.54 193.16 C95.72 193.17 94.89 193.18 94.04 193.18 C91.28 193.2 88.51 193.18 85.75 193.16 C83.77 193.17 81.78 193.18 79.8 193.19 C74.42 193.2 69.03 193.19 63.65 193.17 C58.02 193.16 52.38 193.16 46.75 193.17 C37.29 193.17 27.83 193.16 18.37 193.13 C7.44 193.1 -3.5 193.1 -14.44 193.12 C-24.96 193.13 -35.48 193.12 -46 193.11 C-50.48 193.1 -54.96 193.1 -59.43 193.11 C-64.71 193.12 -69.98 193.1 -75.25 193.08 C-77.19 193.07 -79.12 193.07 -81.06 193.08 C-83.7 193.09 -86.34 193.07 -88.98 193.05 C-89.75 193.06 -90.52 193.06 -91.31 193.07 C-96.23 193 -98.78 192.05 -102.22 188.53 C-103.36 186.26 -103.35 184.99 -103.37 182.46 C-103.37 181.61 -103.38 180.75 -103.39 179.87 C-103.39 178.93 -103.39 178 -103.4 177.03 C-103.41 175.55 -103.41 175.55 -103.42 174.04 C-103.44 170.75 -103.45 167.47 -103.46 164.19 C-103.46 163.06 -103.47 161.94 -103.47 160.78 C-103.49 154.81 -103.51 148.85 -103.51 142.88 C-103.53 136.76 -103.56 130.63 -103.6 124.51 C-103.63 119.77 -103.63 115.03 -103.64 110.3 C-103.64 108.04 -103.65 105.79 -103.67 103.53 C-103.89 75.22 -97.39 51.06 -77.56 29.9 C-55.64 7.66 -30.39 -0.11 0 0 Z " fill="#FFFFFF" transform="translate(103.2197265625,255.466552734375)"/>
<path d="M0 0 C3.48 2.86 6.77 5.86 10 9 C10.87 9.82 11.73 10.65 12.62 11.5 C13.41 12.33 14.19 13.15 15 14 C15.59 14.61 16.18 15.22 16.79 15.84 C37.52 37.98 43.87 66.59 43.13 96.08 C41.92 123.8 27.35 148.51 7.69 167.25 C-13.72 185.98 -41.38 195.48 -69.83 194.15 C-93.14 192.56 -115.35 184.54 -133 169 C-133.81 168.34 -134.61 167.67 -135.45 166.99 C-155.17 150.26 -168.77 124.87 -171 99 C-173.02 67.92 -165.41 41.53 -146 17 C-145.5 16.34 -144.99 15.68 -144.48 15 C-140.08 9.5 -134.55 5.28 -129 1 C-128.19 0.38 -127.39 -0.24 -126.56 -0.88 C-115.19 -9.24 -102.61 -14.54 -89 -18 C-88.27 -18.19 -87.54 -18.37 -86.79 -18.56 C-57.02 -25.37 -24.34 -18.11 0 0 Z M-126.47 28.56 C-142.82 46.95 -150.35 69.45 -149 94 C-146.29 117.12 -135.6 137.53 -117.84 152.81 C-99.63 166.88 -77.49 173.81 -54.47 171.54 C-31.12 167.91 -10.23 156.65 4.25 137.81 C18.29 117.26 23.99 94.1 19.48 69.4 C17.05 57.51 12.13 46.83 5 37 C4.36 36.1 3.71 35.2 3.05 34.27 C-9.8 17.42 -29.47 6.12 -50.27 2.42 C-78.59 -0.76 -106.59 7.42 -126.47 28.56 Z " fill="#FFFFFF" transform="translate(256,20)"/>
</svg>
